<svg xmlns="http://www.w3.org/2000/svg" x="0px" y="0px"
	 viewBox="0 0 36 36" style="enable-background:new 0 0 36 36;" xml:space="preserve">
<path fill="white" d="M16.2,17.3c0.1,0.4,0.3,0.8,0.3,1.1h-3.8c0.2-0.6,0.4-1.3,0.7-2.1c0.2-0.8,0.5-1.5,0.7-2.2
	c0.2-0.6,0.4-1.3,0.5-1.9h0c0.1,0.4,0.2,0.8,0.3,1.2c0.1,0.4,0.2,0.9,0.4,1.3c0.1,0.5,0.3,0.9,0.4,1.4C15.9,16.5,16,16.9,16.2,17.3z
	 M36,6.8v22.3c0,3.5-2.8,6.4-6.4,6.4H6.4c-3.5,0-6.4-2.8-6.4-6.4V6.8c0-3.5,2.8-6.4,6.4-6.4h23.2C33.1,0.5,36,3.3,36,6.8z M22.2,25
	L16.7,9.5c0-0.1-0.1-0.1-0.2-0.1h-3.9c-0.1,0-0.1,0.1-0.1,0.2c0,0.3,0,0.7-0.1,1c-0.1,0.2-0.1,0.3-0.1,0.5L7.4,24.9
	c-0.1,0.2,0,0.3,0.2,0.3h2.8c0.1,0,0.3-0.1,0.3-0.2l1.1-3.5h5.6l1.2,3.6c0,0.1,0.1,0.2,0.2,0.2H22C22.2,25.2,22.2,25.1,22.2,25z
	 M27.2,13.5c0-0.1-0.1-0.2-0.2-0.2h-3c-0.1,0-0.2,0.1-0.2,0.2V25c0,0.1,0.1,0.2,0.2,0.2H27c0.1,0,0.2-0.1,0.2-0.2V13.5z M27.4,10.1
	c0-0.5-0.2-1-0.5-1.3c-0.3-0.3-0.8-0.5-1.4-0.5c-0.5,0-1,0.2-1.3,0.5c-0.4,0.3-0.6,0.8-0.5,1.3c0,0.5,0.2,1,0.5,1.4
	c0.4,0.3,0.8,0.5,1.3,0.5c0.5,0,1-0.2,1.4-0.5C27.2,11.1,27.4,10.6,27.4,10.1z"/>
</svg>
