<svg width="36" height="36" viewBox="0 0 36 36" fill="none" xmlns="http://www.w3.org/2000/svg">
  <path fill="white" d="M16.16,16.88c.13,.39,.26,.76,.34,1.08h-3.81c.22-.63,.45-1.34,.66-2.1,.24-.75,.46-1.5,.69-2.22,.21-.65,.37-1.29,.51-1.94h.03c.11,.36,.21,.75,.33,1.17,.12,.44,.25,.87,.4,1.34,.15,.46,.29,.91,.44,1.38,.14,.45,.27,.88,.41,1.29ZM36,6.38V28.73c0,3.52-2.85,6.37-6.38,6.37H6.38c-3.52,0-6.38-2.85-6.38-6.37V6.38C0,2.85,2.85,0,6.38,0H29.62c3.52,0,6.38,2.85,6.38,6.38Zm-13.84,18.12l-5.48-15.45c-.01-.07-.07-.12-.19-.12h-3.89c-.07,.01-.13,.09-.12,.16,0,.33-.03,.66-.09,.98-.06,.18-.11,.34-.15,.49l-4.83,13.91c-.05,.18,0,.27,.16,.27h2.82c.14,.02,.26-.07,.29-.21l1.14-3.52h5.58l1.23,3.57c.03,.11,.14,.18,.24,.16h3.14c.15,0,.19-.07,.15-.24Zm5.02-11.48c0-.13-.06-.21-.19-.21h-2.97c-.14,0-.2,.06-.2,.21v11.55c0,.15,.07,.24,.23,.24h2.94c.14,0,.19-.08,.19-.24V13.02Zm.21-3.38c.01-.49-.17-.98-.49-1.33-.33-.35-.78-.52-1.37-.52-.49,0-.98,.18-1.33,.52-.36,.34-.56,.83-.54,1.33-.01,.51,.16,1.01,.51,1.38,.36,.34,.84,.54,1.33,.52,.51,.03,1.02-.16,1.37-.52,.36-.37,.54-.87,.52-1.38Z"/>
</svg>
