<svg xmlns="http://www.w3.org/2000/svg" x="0px" y="0px"
	 viewBox="0 0 36 36" style="enable-background:new 0 0 36 36;" xml:space="preserve">
<path fill="white" d="M31.1,14.5c-0.2-1.4-0.9-2.6-2.3-3.6L28,10.3l-0.5,0.8c-0.7,1-1,2.4-0.9,3.8c0,0.5,0.2,1.3,0.7,2.1
	c-0.5,0.3-1.4,0.6-2.7,0.6H0.1l0,0.3c-0.2,1.4-0.2,5.7,2.5,9c2.1,2.5,5.2,3.8,9.3,3.8c8.9,0,15.4-4.1,18.5-11.6c1.2,0,3.8,0,5.1-2.6
	c0-0.1,0.1-0.2,0.3-0.7l0.1-0.3L35.2,15C34.4,14.4,32.6,14.2,31.1,14.5L31.1,14.5L31.1,14.5z M19.7,5.3H16v3.4h3.7V5.3z M19.7,9.4
	H16v3.4h3.7V9.4z M15.3,9.4h-3.7v3.4h3.7V9.4z M10.9,9.4H7.2v3.4h3.7V9.4z M6.5,13.6H2.8V17h3.7L6.5,13.6L6.5,13.6z M10.9,13.6H7.2
	V17h3.7V13.6z M15.3,13.6h-3.7V17h3.7V13.6z M19.7,13.6H16V17h3.7V13.6z M24.1,13.6h-3.7V17h3.7C24.1,17,24.1,13.6,24.1,13.6z"/>
</svg>
