<svg width="36" height="36" viewBox="0 0 36 36" fill="none" xmlns="http://www.w3.org/2000/svg">
  <path fill="white" d="M31.13,9.16c-.19-1.37-.94-2.56-2.3-3.63l-.79-.53-.52,.8c-.67,1.03-1.01,2.45-.9,3.82,.05,.48,.21,1.34,.69,2.09-.48,.27-1.44,.63-2.72,.61H.14l-.05,.29c-.23,1.37-.23,5.66,2.52,8.95,2.09,2.5,5.22,3.77,9.3,3.77,8.86,0,15.4-4.12,18.47-11.64,1.21,.02,3.8,0,5.14-2.57,.03-.06,.11-.21,.34-.71l.13-.27-.75-.51c-.82-.53-2.68-.74-4.12-.46h0ZM19.68,0h-3.71V3.42h3.71V0Zm0,4.11h-3.71v3.42h3.71v-3.42Zm-4.4,0h-3.71v3.42h3.71v-3.42Zm-4.39,0h-3.71v3.42h3.71v-3.42Zm-4.4,4.11H2.79v3.42h3.71v-3.42Zm4.4,0h-3.71v3.42h3.71v-3.42Zm4.39,0h-3.71v3.42h3.71v-3.42Zm4.4,0h-3.71v3.42h3.71v-3.42Zm4.4,0h-3.71v3.42h3.71v-3.42Z"/>
</svg>
