<svg width="36" height="36" viewBox="0 0 36 36" fill="none" xmlns="http://www.w3.org/2000/svg">
  <path fill="white" d="M18.02,9.84c-4.53,0-8.2,3.67-8.2,8.2s3.67,8.2,8.2,8.2,8.2-3.67,8.2-8.2c-.02-4.53-3.7-8.2-8.2-8.2ZM29.78,3.09c2.07,0,3.75,1.68,3.75,3.75s-1.68,3.75-3.75,3.75-3.75-1.68-3.75-3.75,1.68-3.75,3.75-3.75Zm4.6,7.49l-.15-.34-.24,.29c-.61,.69-1.4,1.22-2.25,1.54l-.24,.1,.1,.24c.76,1.79,1.13,3.7,1.13,5.63,0,8.11-6.59,14.72-14.72,14.72S3.31,26.16,3.31,18.05,9.89,3.33,18.02,3.33c2.2,0,4.31,.49,6.29,1.42l.22,.1,.1-.24c.37-.86,.93-1.59,1.67-2.18l.29-.24-.34-.17c-2.57-1.32-5.34-2.01-8.25-2.01C8.08,0,0,8.08,0,18s8.08,18,18,18,18-8.08,18-18c0-2.55-.54-5.04-1.62-7.42Z"/>
</svg>
