<svg xmlns="http://www.w3.org/2000/svg" x="0px" y="0px"
	 viewBox="0 0 36 36" style="enable-background:new 0 0 36 36;" xml:space="preserve">
<path fill="white" d="M13.3,27.8c0,0-1.4,0.8,1,1.1c2.8,0.4,4.3,0.3,7.4-0.3c0.6,0.4,1.3,0.7,2,1C16.7,32.6,7.8,29.4,13.3,27.8
	L13.3,27.8L13.3,27.8z M12.4,23.9c0,0-1.5,1.1,0.8,1.4c3.1,0.3,5.5,0.4,9.6-0.5c0.4,0.4,0.9,0.7,1.4,0.9C15.8,28.2,6.3,26,12.4,23.9
	C12.4,23.9,12.4,23.9,12.4,23.9z M29,30.8c0,0,1,0.8-1.1,1.5c-4,1.2-16.9,1.6-20.5,0c-1.3-0.5,1.1-1.3,1.9-1.4
	c0.8-0.2,1.2-0.2,1.2-0.2c-1.4-1-9.2,2-4,2.8C20.9,35.8,32.7,32.5,29,30.8L29,30.8L29,30.8z M14,19.8c0,0-6.6,1.6-2.3,2.1
	c1.8,0.2,5.3,0.2,8.7-0.1c2.7-0.2,5.4-0.7,5.4-0.7s-1,0.4-1.6,0.8c-6.7,1.7-19.5,1-15.8-0.8C11.4,19.7,14,19.8,14,19.8L14,19.8
	L14,19.8z M25.7,26.4c6.7-3.5,3.6-6.9,1.4-6.4c-0.5,0.1-0.8,0.2-0.8,0.2s0.2-0.4,0.6-0.5c4.3-1.5,7.6,4.5-1.4,6.9
	C25.6,26.6,25.6,26.5,25.7,26.4C25.7,26.4,25.7,26.4,25.7,26.4z M14.6,35.9c6.5,0.4,16.4-0.2,16.7-3.3c0,0-0.5,1.2-5.4,2.1
	c-5.5,1-12.4,0.9-16.4,0.2C9.5,34.9,10.4,35.6,14.6,35.9L14.6,35.9L14.6,35.9z M21.6,0c0,0,3.7,3.8-3.6,9.5c-5.8,4.6-1.3,7.3,0,10.3
	c-3.4-3.1-5.9-5.8-4.2-8.3C16.3,7.8,23.1,6,21.6,0L21.6,0z M19.7,17.3c1.7,2-0.5,3.8-0.5,3.8s4.4-2.3,2.4-5.1
	c-1.9-2.7-3.3-4,4.5-8.5C26.1,7.4,13.8,10.5,19.7,17.3z"/>
</svg>
