<svg width="36" height="36" viewBox="0 0 36 36" fill="none" xmlns="http://www.w3.org/2000/svg">
  <path fill="white" d="M8.58,27.83s-1.38,.84,.96,1.08c2.82,.36,4.33,.3,7.45-.3,.63,.38,1.29,.71,1.98,.96-7.03,3.01-15.93-.18-10.4-1.74h0Zm-.9-3.91s-1.5,1.14,.84,1.38c3.07,.3,5.47,.36,9.62-.48,.4,.41,.9,.72,1.44,.9-8.48,2.52-17.97,.24-11.9-1.8h0Zm16.59,6.85s1.02,.84-1.14,1.5c-4.03,1.2-16.89,1.56-20.5,0-1.26-.54,1.14-1.32,1.91-1.44,.78-.18,1.2-.18,1.2-.18-1.38-.96-9.2,1.98-3.97,2.82,14.37,2.34,26.21-1.02,22.48-2.7h0Zm-15.04-10.94s-6.55,1.56-2.34,2.1c1.8,.24,5.35,.18,8.66-.06,2.7-.24,5.41-.72,5.41-.72,0,0-.96,.42-1.62,.84-6.67,1.74-19.48,.96-15.81-.84,3.13-1.5,5.71-1.32,5.71-1.32h0Zm11.72,6.55c6.73-3.49,3.61-6.85,1.44-6.43-.54,.12-.78,.24-.78,.24,0,0,.18-.36,.6-.48,4.27-1.5,7.63,4.51-1.38,6.85,0,0,.06-.06,.12-.18h0Zm-11.06,9.5c6.49,.42,16.41-.24,16.65-3.31,0,0-.48,1.2-5.35,2.1-5.53,1.02-12.38,.9-16.41,.24,0,0,.84,.72,5.11,.96h0ZM16.88,0s3.73,3.79-3.55,9.5c-5.83,4.63-1.32,7.27,0,10.28-3.43-3.07-5.89-5.77-4.21-8.29,2.46-3.73,9.26-5.52,7.75-11.48Zm-1.91,17.25c1.74,1.98-.48,3.79-.48,3.79,0,0,4.45-2.28,2.4-5.11-1.86-2.7-3.31-4.03,4.51-8.54,0,0-12.32,3.07-6.43,9.86Z"/>
</svg>
