<svg xmlns="http://www.w3.org/2000/svg" x="0px" y="0px"
	 viewBox="0 0 36 36" style="enable-background:new 0 0 36 36;" xml:space="preserve">
<path fill="white" d="M17.9,3.5L28,9.3l0,10.1l-4-2.3l0-5.6L18,8.1l-6.1,3.6l0,5.6L10.5,18l-2.6,1.7l0-10.3L17.9,3.5z M16.2,14.7
	l-2.9,1.7v-3.3L16.2,14.7z M0,22.3v-8.4l6.5-3.8v4.6L4,16.1L4,20l3.3,1.9L22.6,13v4.6L7.4,26.5L0,22.3z M18.1,32.5l-8.6-4.9l3.8-2.4
	l4.8,2.7l4.8-2.8l4,2.3L18.1,32.5L18.1,32.5z M28.7,26.4l-8.9-5.1l4-2.3l4.9,2.8l3.3-2l0-3.9l-2.5-1.4V10l6.5,3.7v8.4L28.7,26.4
	L28.7,26.4z"/>
</svg>
