<svg width="36" height="36" viewBox="0 0 36 36" fill="none" xmlns="http://www.w3.org/2000/svg">
  <path fill="white" d="M17.94,0l10.1,5.76,.03,10.13-3.98-2.27-.02-5.55-6.11-3.48-6.08,3.55,.02,5.55-1.36,.79-2.61,1.67-.03-10.29L17.94,0Zm-1.75,11.19l-2.86,1.67v-3.3s2.86,1.63,2.86,1.63ZM0,18.79V10.37l6.48-3.79v4.59s-2.5,1.47-2.5,1.47l.02,3.86,3.35,1.91,15.29-8.93v4.59S7.38,22.99,7.38,22.99L0,18.79Zm18.06,10.21l-8.56-4.88,3.76-2.42,4.77,2.72,4.81-2.81,3.98,2.27-8.77,5.12Zm10.66-6.12l-8.88-5.06,3.95-2.32,4.91,2.79,3.33-1.95-.02-3.86-2.51-1.44V6.48s6.52,3.73,6.52,3.73v8.42l-7.28,4.26Z"/>
</svg>
