<svg width="36" height="36" viewBox="0 0 36 36" fill="none" xmlns="http://www.w3.org/2000/svg">
  <path fill="white" d="M15.82,13.03c.24,.41,.36,.87,.34,1.34,0,.66-.15,1.17-.46,1.54-.33,.38-.75,.66-1.23,.79-.56,.18-1.14,.27-1.73,.27h-.79c-.18,0-.38-.02-.59-.03v-5.04c.11-.02,.32-.03,.61-.02,.29-.01,.63-.01,1.02-.01,.61-.02,1.21,.07,1.77,.3,.44,.16,.79,.46,1.05,.85Zm20.18-6.66V28.72c0,3.53-2.85,6.38-6.38,6.38H6.38c-3.52,0-6.38-2.85-6.38-6.38V6.38C0,2.85,2.85,0,6.38,0H29.62c3.53,0,6.38,2.85,6.38,6.38Zm-16.56,7.91c0-.68-.12-1.32-.34-1.95-.24-.64-.61-1.23-1.09-1.71-.57-.56-1.26-.98-2.01-1.23-.84-.31-1.86-.46-3.09-.46-.45,0-.9,0-1.36,.01-.47,.02-.9,.02-1.31,.03-.41,.02-.78,.02-1.14,.03-.34,.01-.58,.01-.84,.01-.11,0-.15,.06-.15,.17v15.43c0,.14,.06,.19,.18,.19h2.91c.11-.01,.18-.11,.17-.21v-4.81c.28,0,.49,0,.64,.02,.15,.01,.39,.01,.75,.01,1.23,0,2.36-.13,3.38-.51,.97-.36,1.81-.99,2.41-1.83s.9-1.91,.9-3.19Zm10.32,7.03c.02-.54-.1-1.06-.34-1.54-.28-.51-.69-.93-1.18-1.24-.72-.45-1.5-.83-2.31-1.09-.36-.15-.72-.32-1.06-.5-.19-.1-.38-.24-.51-.4-.09-.12-.15-.26-.15-.39s.04-.28,.12-.41c.11-.15,.27-.25,.47-.3,.28-.07,.6-.12,.9-.1,.57,0,1.12,.07,1.68,.19,.51,.11,.99,.27,1.44,.51,.06,.03,.14,.03,.27,0,.05-.03,.08-.09,.08-.15v-2.44c0-.06-.01-.12-.03-.18-.03-.06-.09-.12-.15-.14-.41-.16-.84-.28-1.29-.34-.61-.09-1.24-.13-1.86-.13-1.07,0-1.95,.16-2.66,.53-.64,.3-1.2,.78-1.57,1.38-.33,.56-.51,1.17-.51,1.82-.01,.52,.11,1.05,.35,1.53,.28,.51,.67,.95,1.14,1.28,.66,.45,1.36,.81,2.13,1.08,.74,.29,1.23,.51,1.47,.71s.36,.39,.36,.6c0,.27-.17,.52-.41,.63-.27,.13-.67,.21-1.24,.21-.6,0-1.2-.08-1.77-.22-.66-.15-1.28-.39-1.86-.73-.04-.03-.09-.05-.14-.02-.04,.03-.06,.09-.06,.14v2.61c-.01,.12,.06,.23,.16,.29,.48,.22,1.01,.39,1.53,.48,.68,.14,1.35,.2,2.04,.2,1.08,0,1.98-.17,2.71-.48,.67-.27,1.26-.74,1.68-1.34,.39-.58,.6-1.29,.58-1.99Z"/>
</svg>
