<svg xmlns="http://www.w3.org/2000/svg" x="0px" y="0px"
	 viewBox="0 0 36 36" style="enable-background:new 0 0 36 36;" xml:space="preserve">
<path fill="white" d="M15.8,13.5c0.2,0.4,0.4,0.9,0.3,1.3c0,0.7-0.1,1.2-0.5,1.5c-0.3,0.4-0.8,0.7-1.2,0.8c-0.6,0.2-1.1,0.3-1.7,0.3
	h-0.8c-0.2,0-0.4,0-0.6,0v-5c0.1,0,0.3,0,0.6,0c0.3,0,0.6,0,1,0c0.6,0,1.2,0.1,1.8,0.3C15.2,12.8,15.6,13.1,15.8,13.5L15.8,13.5z
	 M36,6.8v22.3c0,3.5-2.8,6.4-6.4,6.4H6.4c-3.5,0-6.4-2.8-6.4-6.4V6.8c0-3.5,2.8-6.4,6.4-6.4h23.2C33.2,0.5,36,3.3,36,6.8L36,6.8z
	 M19.4,14.7c0-0.7-0.1-1.3-0.3-1.9c-0.2-0.6-0.6-1.2-1.1-1.7c-0.6-0.6-1.3-1-2-1.2c-0.8-0.3-1.9-0.5-3.1-0.5c-0.4,0-0.9,0-1.4,0
	c-0.5,0-0.9,0-1.3,0c-0.4,0-0.8,0-1.1,0c-0.3,0-0.6,0-0.8,0c-0.1,0-0.1,0.1-0.1,0.2v15.4c0,0.1,0.1,0.2,0.2,0.2h2.9
	c0.1,0,0.2-0.1,0.2-0.2v-4.8c0.3,0,0.5,0,0.6,0c0.1,0,0.4,0,0.8,0c1.2,0,2.4-0.1,3.4-0.5c1-0.4,1.8-1,2.4-1.8S19.4,16,19.4,14.7
	L19.4,14.7z M29.8,21.8c0-0.5-0.1-1.1-0.3-1.5c-0.3-0.5-0.7-0.9-1.2-1.2c-0.7-0.5-1.5-0.8-2.3-1.1c-0.4-0.1-0.7-0.3-1.1-0.5
	c-0.2-0.1-0.4-0.2-0.5-0.4c-0.1-0.1-0.1-0.3-0.1-0.4s0-0.3,0.1-0.4c0.1-0.1,0.3-0.2,0.5-0.3c0.3-0.1,0.6-0.1,0.9-0.1
	c0.6,0,1.1,0.1,1.7,0.2c0.5,0.1,1,0.3,1.4,0.5c0.1,0,0.1,0,0.3,0c0,0,0.1-0.1,0.1-0.1v-2.4c0-0.1,0-0.1,0-0.2c0-0.1-0.1-0.1-0.1-0.1
	c-0.4-0.2-0.8-0.3-1.3-0.3c-0.6-0.1-1.2-0.1-1.9-0.1c-1.1,0-2,0.2-2.7,0.5c-0.6,0.3-1.2,0.8-1.6,1.4c-0.3,0.6-0.5,1.2-0.5,1.8
	c0,0.5,0.1,1,0.4,1.5c0.3,0.5,0.7,1,1.1,1.3c0.7,0.5,1.4,0.8,2.1,1.1c0.7,0.3,1.2,0.5,1.5,0.7s0.4,0.4,0.4,0.6
	c0,0.3-0.2,0.5-0.4,0.6c-0.3,0.1-0.7,0.2-1.2,0.2c-0.6,0-1.2-0.1-1.8-0.2c-0.7-0.1-1.3-0.4-1.9-0.7c0,0-0.1,0-0.1,0
	c0,0-0.1,0.1-0.1,0.1v2.6c0,0.1,0.1,0.2,0.2,0.3c0.5,0.2,1,0.4,1.5,0.5c0.7,0.1,1.4,0.2,2,0.2c1.1,0,2-0.2,2.7-0.5
	c0.7-0.3,1.3-0.7,1.7-1.3C29.6,23.2,29.8,22.5,29.8,21.8L29.8,21.8z"/>
</svg>
