<svg width="36" height="36" viewBox="0 0 36 36" fill="none" xmlns="http://www.w3.org/2000/svg">
  <path fill="white" d="M18,12.77c1.78,0,3.21,1.44,3.21,3.21s-1.44,3.21-3.21,3.21-3.21-1.44-3.21-3.21,1.44-3.21,3.21-3.21Zm11.6-2.39c-.38-.13-.77-.25-1.17-.37,.07-.27,.13-.53,.19-.79,.89-4.34,.26-7.71-1.66-8.82-1.84-1.06-4.85-.04-8.05,2.75-.3,.26-.6,.54-.9,.83-.2-.19-.4-.38-.59-.56C14.11,.49,10.87-.65,8.95,.46c-1.84,1.07-2.46,4.19-1.64,8.35,.08,.39,.17,.79,.27,1.19-.46,.13-.91,.27-1.33,.42C2.33,11.78,0,13.86,0,15.99s2.52,4.44,6.58,5.83c.31,.11,.64,.2,.97,.3-.11,.44-.2,.87-.28,1.29-.77,4.07-.13,7.13,1.71,8.19,.5,.29,1.08,.43,1.73,.43,1.85,0,4.22-1.13,6.61-3.22,.25-.22,.5-.45,.75-.69,.33,.31,.65,.61,.98,.89,2.3,1.98,4.52,3.04,6.26,3.04,.63,0,1.2-.14,1.69-.42,1.91-1.11,2.58-4.41,1.74-8.62-.06-.31-.14-.64-.22-.97,.23-.07,.46-.13,.68-.2,4.2-1.39,6.81-3.63,6.81-5.84s-2.39-4.22-6.4-5.6ZM25.33,1.55c.35,0,.64,.07,.86,.19,1.03,.59,1.76,3.09,.92,7.18-.05,.23-.11,.48-.17,.72-1.5-.34-3.12-.6-4.81-.75-.99-1.41-2.02-2.69-3.04-3.8,.28-.27,.55-.52,.83-.76,2.27-1.98,4.21-2.77,5.41-2.77Zm-2.31,17.37c-.57,.98-1.14,1.91-1.72,2.78-1.07,.08-2.17,.12-3.3,.12s-2.21-.04-3.25-.1c-.62-.9-1.21-1.83-1.77-2.79-.56-.96-1.07-1.93-1.53-2.9,.47-.97,.98-1.95,1.53-2.9,.55-.96,1.14-1.89,1.75-2.77,1.08-.08,2.17-.13,3.28-.13s2.21,.05,3.28,.13c.6,.88,1.18,1.8,1.74,2.77,.57,.98,1.08,1.94,1.55,2.88-.47,.97-.98,1.94-1.54,2.92Zm2.37-1.14c.48,1.1,.89,2.16,1.21,3.17-1.04,.24-2.17,.43-3.36,.57,.37-.59,.74-1.19,1.11-1.83,.37-.64,.71-1.27,1.04-1.91Zm-7.33,8.13c-.73-.79-1.45-1.66-2.16-2.59,.69,.03,1.38,.04,2.1,.04s1.46-.02,2.17-.05c-.7,.95-1.41,1.83-2.11,2.6Zm-5.28-4.36c-1.18-.13-2.29-.31-3.32-.53,.32-1.03,.71-2.09,1.17-3.18,.32,.62,.66,1.24,1.01,1.86,.37,.63,.75,1.24,1.13,1.85Zm-2.15-7.33c-.45-1.06-.83-2.1-1.15-3.11,1.03-.23,2.12-.41,3.26-.56-.38,.59-.75,1.19-1.1,1.8h0c-.36,.62-.69,1.24-1.01,1.86Zm7.38-8.04c.71,.77,1.42,1.63,2.11,2.56-.7-.03-1.41-.06-2.13-.06h0c-.71,0-1.42,.02-2.11,.05,.7-.92,1.41-1.78,2.13-2.56Zm6.33,6.17c-.36-.62-.72-1.21-1.1-1.79,1.15,.14,2.25,.33,3.28,.57-.31,.99-.7,2.03-1.16,3.1-.33-.62-.66-1.24-1.03-1.87Zm-15.53-3.83c-.75-3.82-.06-6.16,.9-6.72,.23-.13,.54-.21,.92-.21,1.29,0,3.35,.85,5.76,3,.18,.16,.36,.33,.54,.5-1.05,1.12-2.08,2.41-3.06,3.79-1.69,.16-3.31,.4-4.81,.74-.09-.38-.18-.75-.25-1.11Zm-1.74,11.85c-3.81-1.3-5.54-3.18-5.54-4.37s1.61-2.86,5.21-4.12c.4-.14,.81-.27,1.24-.39,.45,1.47,1.05,3,1.76,4.54-.72,1.57-1.33,3.12-1.78,4.61-.3-.09-.61-.18-.89-.27Zm9.22,7.29c-3.03,2.65-5.52,3.22-6.56,2.62-.99-.57-1.68-2.83-.96-6.57,.07-.39,.16-.79,.26-1.19,1.47,.32,3.1,.56,4.85,.7,.99,1.4,2.03,2.69,3.09,3.82-.23,.22-.46,.44-.68,.64Zm10.92-4.35c.78,3.95,.03,6.39-1.01,6.99-.99,.57-3.29,.04-6.18-2.45-.3-.26-.6-.53-.9-.83,1.01-1.1,2.02-2.4,3.02-3.84,1.74-.16,3.39-.41,4.87-.75,.07,.3,.14,.59,.2,.88Zm1.48-2.93c-.19,.06-.4,.12-.61,.18-.45-1.43-1.07-2.96-1.83-4.55,.72-1.55,1.31-3.06,1.75-4.49,.37,.11,.73,.22,1.07,.34,3.69,1.27,5.36,3.04,5.36,4.15,0,1.19-1.8,3.07-5.76,4.38Z"/>
</svg>
