<svg xmlns="http://www.w3.org/2000/svg" x="0px" y="0px"
	 viewBox="0 0 36 36" style="enable-background:new 0 0 36 36;" xml:space="preserve">
<path fill="white" d="M18,14.8c1.8,0,3.2,1.4,3.2,3.2c0,1.8-1.4,3.2-3.2,3.2c-1.8,0-3.2-1.4-3.2-3.2C14.8,16.2,16.2,14.8,18,14.8z
	 M29.6,12.4c-0.4-0.1-0.8-0.2-1.2-0.4c0.1-0.3,0.1-0.5,0.2-0.8c0.9-4.3,0.3-7.7-1.7-8.8c-1.8-1.1-4.9,0-8.1,2.7
	C18.6,5.4,18.3,5.7,18,6c-0.2-0.2-0.4-0.4-0.6-0.6c-3.3-2.9-6.6-4.1-8.5-3c-1.8,1.1-2.5,4.2-1.6,8.4c0.1,0.4,0.2,0.8,0.3,1.2
	c-0.5,0.1-0.9,0.3-1.3,0.4C2.3,13.8,0,15.8,0,18s2.5,4.4,6.6,5.8c0.3,0.1,0.6,0.2,1,0.3c-0.1,0.4-0.2,0.9-0.3,1.3
	c-0.8,4.1-0.1,7.1,1.7,8.2C9.5,33.9,10,34,10.7,34c1.9,0,4.2-1.1,6.6-3.2c0.2-0.2,0.5-0.5,0.8-0.7c0.3,0.3,0.7,0.6,1,0.9
	c2.3,2,4.5,3,6.3,3c0.6,0,1.2-0.1,1.7-0.4c1.9-1.1,2.6-4.4,1.7-8.6c-0.1-0.3-0.1-0.6-0.2-1c0.2-0.1,0.5-0.1,0.7-0.2
	c4.2-1.4,6.8-3.6,6.8-5.8S33.6,13.8,29.6,12.4L29.6,12.4z M25.3,3.5c0.3,0,0.6,0.1,0.9,0.2c1,0.6,1.8,3.1,0.9,7.2
	c0,0.2-0.1,0.5-0.2,0.7c-1.5-0.3-3.1-0.6-4.8-0.8c-1-1.4-2-2.7-3-3.8c0.3-0.3,0.5-0.5,0.8-0.8C22.2,4.3,24.1,3.5,25.3,3.5L25.3,3.5z
	 M23,20.9c-0.6,1-1.1,1.9-1.7,2.8c-1.1,0.1-2.2,0.1-3.3,0.1c-1.1,0-2.2,0-3.3-0.1c-0.6-0.9-1.2-1.8-1.8-2.8c-0.6-1-1.1-1.9-1.5-2.9
	c0.5-1,1-2,1.5-2.9c0.6-1,1.1-1.9,1.8-2.8c1.1-0.1,2.2-0.1,3.3-0.1s2.2,0.1,3.3,0.1c0.6,0.9,1.2,1.8,1.7,2.8c0.6,1,1.1,1.9,1.5,2.9
	C24.1,19,23.6,19.9,23,20.9L23,20.9z M25.4,19.8c0.5,1.1,0.9,2.2,1.2,3.2c-1,0.2-2.2,0.4-3.4,0.6c0.4-0.6,0.7-1.2,1.1-1.8
	C24.7,21,25,20.4,25.4,19.8z M18,27.9c-0.7-0.8-1.5-1.7-2.2-2.6c0.7,0,1.4,0,2.1,0s1.5,0,2.2,0C19.5,26.2,18.7,27.1,18,27.9z
	 M12.8,23.5c-1.2-0.1-2.3-0.3-3.3-0.5c0.3-1,0.7-2.1,1.2-3.2c0.3,0.6,0.7,1.2,1,1.9C12,22.3,12.4,22.9,12.8,23.5L12.8,23.5z
	 M10.6,16.2c-0.4-1.1-0.8-2.1-1.1-3.1c1-0.2,2.1-0.4,3.3-0.6c-0.4,0.6-0.8,1.2-1.1,1.8l0,0C11.3,15,10.9,15.6,10.6,16.2L10.6,16.2z
	 M18,8.2c0.7,0.8,1.4,1.6,2.1,2.6c-0.7,0-1.4-0.1-2.1-0.1l0,0c-0.7,0-1.4,0-2.1,0.1C16.6,9.8,17.3,8.9,18,8.2L18,8.2z M24.3,14.3
	c-0.4-0.6-0.7-1.2-1.1-1.8c1.2,0.1,2.2,0.3,3.3,0.6c-0.3,1-0.7,2-1.2,3.1C25,15.6,24.7,15,24.3,14.3L24.3,14.3z M8.8,10.5
	C8,6.7,8.7,4.3,9.7,3.8c0.2-0.1,0.5-0.2,0.9-0.2c1.3,0,3.3,0.8,5.8,3c0.2,0.2,0.4,0.3,0.5,0.5c-1,1.1-2.1,2.4-3.1,3.8
	c-1.7,0.2-3.3,0.4-4.8,0.7C9,11.2,8.9,10.9,8.8,10.5L8.8,10.5z M7.1,22.4c-3.8-1.3-5.5-3.2-5.5-4.4c0-1.2,1.6-2.9,5.2-4.1
	c0.4-0.1,0.8-0.3,1.2-0.4c0.4,1.5,1.1,3,1.8,4.5c-0.7,1.6-1.3,3.1-1.8,4.6C7.6,22.5,7.3,22.4,7.1,22.4z M16.3,29.6
	c-3,2.6-5.5,3.2-6.6,2.6c-1-0.6-1.7-2.8-1-6.6c0.1-0.4,0.2-0.8,0.3-1.2c1.5,0.3,3.1,0.6,4.8,0.7c1,1.4,2,2.7,3.1,3.8
	C16.7,29.2,16.5,29.5,16.3,29.6L16.3,29.6z M27.2,25.3c0.8,4,0,6.4-1,7c-1,0.6-3.3,0-6.2-2.5c-0.3-0.3-0.6-0.5-0.9-0.8
	c1-1.1,2-2.4,3-3.8c1.7-0.2,3.4-0.4,4.9-0.8C27.1,24.7,27.1,25,27.2,25.3z M28.7,22.4c-0.2,0.1-0.4,0.1-0.6,0.2
	c-0.5-1.4-1.1-3-1.8-4.6c0.7-1.6,1.3-3.1,1.8-4.5c0.4,0.1,0.7,0.2,1.1,0.3c3.7,1.3,5.4,3,5.4,4.2C34.4,19.2,32.6,21.1,28.7,22.4
	L28.7,22.4z"/>
</svg>
