<svg xmlns="http://www.w3.org/2000/svg" x="0px" y="0px"
	 viewBox="0 0 36 36" style="enable-background:new 0 0 36 36;" xml:space="preserve">
<path fill="white" d="M29.9,7L29.9,7c0-0.2-0.2-0.3-0.3-0.3c-0.1,0-2.9-0.2-2.9-0.2s-1.9-1.9-2.1-2.1c0,0,0,0,0,0c0,0,0,0,0,0
	c0,0,0,0,0,0c0,0,0,0,0,0c0,0,0,0,0,0c0,0,0,0,0,0h0c0,0,0,0,0,0c0,0,0,0,0,0c0,0,0,0,0,0c0,0,0,0,0,0c-0.2,0-0.4,0-0.5,0
	c0,0-0.4,0.1-1.1,0.3c-0.6-1.8-1.8-3.5-3.8-3.5c-0.1,0-0.1,0-0.2,0C18.2,0.3,17.5,0,16.9,0C12.2,0,10,5.8,9.3,8.8
	c-1.8,0.6-3.1,1-3.3,1c-1,0.3-1,0.4-1.2,1.3c-0.1,0.7-2.7,21.1-2.7,21.1L22.7,36l9.4-2l1.7-0.4C33.8,33.6,29.9,7.2,29.9,7L29.9,7z
	 M18.6,5.7c0,0.1,0,0.1,0,0.2C17.5,6.2,16.3,6.6,15,7c0.7-2.7,2-4,3.1-4.4C18.4,3.3,18.6,4.3,18.6,5.7z M16.8,1.3L16.8,1.3
	c0.2,0,0.4,0.1,0.6,0.2c-1.5,0.7-3.1,2.5-3.8,6l-2.8,0.9C11.6,5.6,13.4,1.3,16.8,1.3L16.8,1.3z M17.6,17c0,0-1.2-0.6-2.7-0.6
	c-2.2,0-2.3,1.4-2.3,1.7c0,1.9,4.9,2.6,4.9,6.9c0,3.4-2.2,5.6-5.1,5.6c-3.5,0-5.3-2.2-5.3-2.2L8,25.3c0,0,1.8,1.6,3.4,1.6
	c1,0,1.4-0.8,1.4-1.4c0-2.4-4-2.5-4-6.5c0-3.4,2.4-6.6,7.3-6.6c1.9,0,2.8,0.5,2.8,0.5L17.6,17L17.6,17z M19.8,5.5c0-0.1,0-0.2,0-0.4
	c0-1.2-0.2-2.1-0.4-2.8c1,0.1,1.7,1.3,2.1,2.6L19.8,5.5L19.8,5.5z"/>
</svg>
