<svg width="36" height="36" viewBox="0 0 36 36" fill="none" xmlns="http://www.w3.org/2000/svg">
  <path fill="white" d="M27.73,7.01h0c-.02-.18-.18-.28-.31-.29-.13-.01-2.9-.22-2.9-.22,0,0-1.92-1.91-2.13-2.12-.01-.01-.02-.02-.04-.03,0,0,0,0-.01-.01,0,0-.02-.01-.03-.02,0,0-.01,0-.02-.01,0,0-.02-.01-.03-.02,0,0-.02,0-.03-.01,0,0-.02,0-.02,0,0,0-.02,0-.03,0,0,0-.01,0-.02,0,0,0-.02,0-.03,0,0,0-.01,0-.02,0-.19-.04-.41,0-.51,.03-.02,0-.42,.13-1.08,.33-.64-1.85-1.77-3.54-3.77-3.54-.06,0-.11,0-.17,0-.57-.75-1.27-1.08-1.88-1.08-4.64,0-6.86,5.8-7.56,8.75-1.8,.56-3.09,.96-3.25,1.01-1.01,.32-1.04,.35-1.17,1.3-.1,.72-2.73,21.1-2.73,21.1l20.53,3.85,9.43-2.04,1.7-.37s-3.91-26.4-3.93-26.58Zm-11.29-1.33c0,.07,0,.14,0,.2-1.13,.35-2.36,.73-3.59,1.11,.69-2.67,1.99-3.95,3.12-4.44,.29,.72,.47,1.74,.47,3.13Zm-1.85-4.43h0c.2,0,.4,.07,.6,.2-1.49,.7-3.08,2.46-3.76,5.99l-2.84,.88c.79-2.69,2.66-7.06,6-7.06Zm.8,15.7s-1.2-.64-2.68-.64c-2.16,0-2.27,1.36-2.27,1.7,0,1.86,4.86,2.58,4.86,6.94,0,3.43-2.18,5.65-5.12,5.65-3.52,0-5.33-2.19-5.33-2.19l.94-3.12s1.85,1.59,3.42,1.59c1.02,0,1.44-.8,1.44-1.39,0-2.43-3.99-2.54-3.99-6.53,0-3.36,2.41-6.62,7.28-6.62,1.88,0,2.8,.54,2.8,.54l-1.37,4.08Zm2.27-11.44c0-.12,0-.24,0-.37,0-1.15-.16-2.07-.42-2.81,1.03,.13,1.71,1.3,2.15,2.64l-1.74,.54Z"/>
</svg>
