<svg width="36" height="36" viewBox="0 0 36 36" fill="none" xmlns="http://www.w3.org/2000/svg">
  <path fill="white" d="M32.48,0H3.52C1.57,0,0,1.57,0,3.52v28.97c0,1.94,1.57,3.52,3.52,3.52h28.97c1.94,0,3.52-1.57,3.52-3.52V3.52c0-1.94-1.57-3.52-3.52-3.52Zm-11.6,19.97h-4.52v12.86h-3.58v-12.86h-4.49v-2.89h12.59v2.89Zm11.66,10.58c-.33,.6-.79,1.08-1.36,1.45-.57,.37-1.24,.64-2,.8-.76,.16-1.56,.24-2.4,.24s-1.69-.07-2.47-.22-1.46-.37-2.03-.66v-3.52h0c.64,.54,1.33,.94,2.08,1.2,.75,.27,1.5,.4,2.27,.4,.45,0,.84-.04,1.17-.12,.33-.08,.61-.19,.84-.34,.22-.14,.39-.31,.5-.51,.11-.19,.17-.41,.17-.63,0-.31-.09-.58-.26-.82-.18-.24-.42-.47-.72-.67-.3-.21-.67-.4-1.08-.59-.42-.19-.87-.38-1.35-.58-1.23-.51-2.15-1.14-2.76-1.88-.61-.74-.91-1.64-.91-2.68,0-.82,.17-1.53,.5-2.12,.33-.59,.78-1.08,1.35-1.46,.57-.38,1.23-.66,1.98-.84,.75-.18,1.54-.27,2.38-.27s1.55,.05,2.18,.15c.63,.1,1.22,.25,1.76,.46v3.29c-.26-.18-.55-.34-.86-.48-.31-.14-.63-.25-.96-.35-.33-.09-.66-.16-.98-.2-.33-.04-.64-.07-.93-.07-.4,0-.77,.04-1.1,.12-.33,.08-.61,.19-.84,.32-.23,.14-.4,.31-.53,.5-.12,.19-.19,.41-.19,.65,0,.26,.07,.5,.21,.71,.14,.21,.34,.41,.59,.59,.26,.19,.57,.37,.94,.55,.37,.18,.78,.36,1.24,.56,.63,.26,1.2,.54,1.7,.84,.5,.3,.93,.63,1.29,1.01,.36,.37,.63,.8,.83,1.28s.29,1.04,.29,1.68c0,.88-.17,1.62-.5,2.22Z"/>
</svg>
