<svg width="36" height="36" viewBox="0 0 36 36" fill="none" xmlns="http://www.w3.org/2000/svg">
  <path fill="white" d="M18,0C8.07,0,0,8.07,0,18s8.07,18,18,18,18-8.07,18-18c0-9.92-8.07-18-18-18ZM1.82,18c0-2.35,.5-4.57,1.4-6.59l7.72,21.15C5.54,29.94,1.82,24.41,1.82,18Zm16.18,16.18c-1.59,0-3.12-.23-4.57-.66l4.86-14.11,4.98,13.63c.03,.08,.07,.15,.12,.22-1.68,.59-3.49,.92-5.37,.92Zm2.23-23.77c.97-.05,1.85-.15,1.85-.15,.87-.1,.77-1.38-.1-1.33,0,0-2.62,.21-4.31,.21-1.59,0-4.26-.21-4.26-.21-.87-.05-.97,1.28-.1,1.33,0,0,.83,.1,1.7,.15l2.52,6.91-3.54,10.62L8.09,10.41c.98-.05,1.85-.15,1.85-.15,.87-.1,.77-1.38-.1-1.33,0,0-2.62,.21-4.31,.21-.3,0-.66,0-1.04-.02C7.37,4.72,12.35,1.82,18,1.82c4.21,0,8.05,1.61,10.93,4.25-.07,0-.14-.01-.21-.01-1.59,0-2.72,1.38-2.72,2.87,0,1.33,.77,2.46,1.59,3.8,.62,1.08,1.33,2.46,1.33,4.46,0,1.39-.53,2.99-1.23,5.23l-1.61,5.39-5.85-17.4Zm5.91,21.58l4.94-14.29c.92-2.31,1.23-4.15,1.23-5.8,0-.6-.04-1.15-.11-1.66,1.26,2.31,1.98,4.95,1.98,7.76,0,5.97-3.24,11.18-8.05,13.99Z"/>
</svg>
